<svg version="1.1" id="Layer_1" xmlns="http://www.w3.org/2000/svg" xmlns:xlink="http://www.w3.org/1999/xlink" x="0px" y="0px"
	 width="100%" viewBox="0 0 2048 2048" enable-background="new 0 0 2048 2048" xml:space="preserve">
<!-- The following paths define the main red shape (#E30613) -->
<path fill="#E30613" opacity="1.000000" stroke="none" 
	d="
M1.000000,1084.000000 
	C1.000000,1044.979126 1.000000,1005.958191 1.427944,966.592896 
	C2.229120,965.570984 2.880376,964.914551 2.933637,964.212646 
	C3.669749,954.510803 4.242821,944.796326 5.018765,935.097961 
	C5.937030,923.620605 6.611983,912.103210 8.113707,900.698120 
	C10.420958,883.175293 12.967230,865.665649 16.102699,848.274963 
	C19.779991,827.879028 23.567019,807.464478 28.425247,787.327942 
	C38.188538,746.860901 50.282543,707.086304 64.803474,668.017029 
	C76.548042,636.417664 89.395836,605.284729 104.637733,575.288086 
	C119.085991,546.853394 134.721298,518.964600 151.052704,491.561737 
	C164.598587,468.832733 179.231583,446.668732 194.650711,425.163391 
	C208.874237,405.325562 224.412811,386.387177 240.059464,367.625793 
	C254.737900,350.025330 269.972473,332.854431 285.613617,316.102600 
	C296.947784,303.963562 309.214203,292.678406 321.307953,281.270081 
	C332.360046,270.844421 343.539337,260.534607 355.024475,250.591797 
	C368.823425,238.645935 382.595276,226.603516 397.107880,215.561005 
	C426.145691,193.466385 455.661591,171.963364 487.156403,153.439590 
	C511.261444,139.262115 535.510681,125.283699 560.188171,112.141243 
	C577.516235,102.912811 595.549927,94.964661 613.497314,86.957550 
	C628.097229,80.443909 642.957397,74.489655 657.841675,68.642418 
	C692.206116,55.142467 727.286011,43.669453 763.051392,34.628162 
	C789.920410,27.835833 817.144958,22.338192 844.376526,17.128054 
	C865.575256,13.072175 886.963623,9.814695 908.389160,7.196700 
	C926.035278,5.040502 943.862976,4.383492 961.599182,2.927850 
	C963.108704,2.803957 964.535034,1.666565 966.000000,1.000001 
	C1005.020935,1.000000 1044.041870,1.000000 1083.407104,1.427895 
	C1084.929688,2.236812 1086.086426,2.845809 1087.289795,2.958411 
	C1091.883545,3.388263 1096.497681,3.596531 1101.094482,3.999243 
	C1116.002808,5.305339 1130.927124,6.468030 1145.806152,8.054590 
	C1159.172119,9.479823 1172.564697,10.933131 1185.804443,13.198908 
	C1204.471191,16.393436 1223.001465,20.380877 1241.601318,23.971155 
	C1273.189697,30.068514 1304.128906,38.716499 1334.723633,48.492168 
	C1356.326050,55.394627 1377.739502,62.994202 1398.880615,71.201439 
	C1416.992432,78.232712 1434.597778,86.568993 1452.305298,94.646576 
	C1414.341797,133.475052 1376.516357,172.001038 1338.655396,210.492157 
	C1197.959717,353.529510 1057.252686,496.555481 916.549866,639.585693 
	C775.496460,782.972351 634.442810,926.358704 493.389618,1069.745605 
	C410.183533,1154.328369 326.984772,1238.918579 243.770218,1323.493164 
	C196.436600,1371.600342 149.077866,1419.682861 101.464149,1467.589844 
	C96.792320,1457.911987 92.043037,1448.562866 88.050964,1438.900757 
	C79.021523,1417.047363 69.547134,1395.325073 61.763039,1373.022705 
	C51.777802,1344.413940 42.269650,1315.557373 34.428497,1286.305664 
	C27.305754,1259.733887 22.247934,1232.573975 17.112028,1205.515381 
	C13.090621,1184.328369 9.809955,1162.964844 7.193794,1141.558350 
	C5.039120,1123.927979 4.382548,1106.116089 2.927825,1088.395630 
	C2.804045,1086.887817 1.666563,1085.463257 1.000000,1084.000000 
z"/>
<path fill="#E30613" opacity="1.000000" stroke="none" 
	d="
M2049.000000,966.000000 
	C2049.000000,1005.020935 2049.000000,1044.041870 2048.572266,1083.406616 
	C2047.770996,1084.429077 2047.119629,1085.086426 2047.066284,1085.789307 
	C2046.330200,1095.491089 2045.756836,1105.205688 2044.980957,1114.904053 
	C2044.062744,1126.381348 2043.387817,1137.898804 2041.885986,1149.303833 
	C2039.578491,1166.826782 2037.032471,1184.336670 2033.896851,1201.727417 
	C2030.219482,1222.123413 2026.431396,1242.537720 2021.573486,1262.674316 
	C2011.810669,1303.140991 1999.729492,1342.919556 1985.191528,1381.982178 
	C1973.375854,1413.729980 1960.025879,1444.779663 1945.215576,1475.197632 
	C1937.186401,1491.688354 1928.514038,1507.895386 1919.464111,1523.851685 
	C1908.986328,1542.326172 1898.566284,1560.918945 1886.696411,1578.498413 
	C1868.935791,1604.802246 1850.246826,1630.500244 1831.335815,1655.998535 
	C1820.391724,1670.755127 1808.491211,1684.830688 1796.551392,1698.811646 
	C1786.571777,1710.497314 1776.306152,1721.995605 1765.457275,1732.868530 
	C1748.807983,1749.554688 1731.869629,1765.984009 1714.456299,1781.866821 
	C1698.281860,1796.619751 1681.543335,1810.780273 1664.641479,1824.701660 
	C1651.495239,1835.529419 1638.083740,1846.115112 1624.129639,1855.862793 
	C1604.029541,1869.903809 1583.721558,1883.730103 1562.783936,1896.467285 
	C1538.900757,1910.996460 1514.488159,1924.716431 1489.810913,1937.858765 
	C1472.482910,1947.086914 1454.449707,1955.035034 1436.502563,1963.041992 
	C1421.902832,1969.555664 1407.042725,1975.510010 1392.158569,1981.356934 
	C1357.793579,1994.856689 1322.713623,2006.331177 1286.947510,2015.372314 
	C1260.078979,2022.164062 1232.854858,2027.661621 1205.623779,2032.871582 
	C1184.424927,2036.927368 1163.036621,2040.185059 1141.610962,2042.803101 
	C1123.964600,2044.959351 1106.136841,2045.616211 1088.400391,2047.071899 
	C1086.890991,2047.195679 1085.464844,2048.333252 1084.000000,2049.000000 
	C1044.979126,2049.000000 1005.958191,2049.000000 966.593140,2048.572266 
	C965.071045,2047.763184 963.914429,2047.154175 962.711426,2047.041504 
	C958.118591,2046.611694 953.505371,2046.403442 948.909607,2046.000732 
	C934.004578,2044.694458 919.083313,2043.531372 904.207642,2041.945312 
	C890.844604,2040.520386 877.454773,2039.068726 864.218140,2036.803223 
	C845.555664,2033.609253 827.026550,2029.638062 808.434875,2026.027954 
	C776.702820,2019.866577 745.501038,2011.532349 714.908875,2001.248657 
	C685.840210,1991.476929 657.169006,1980.498901 628.476318,1969.645996 
	C618.892517,1966.020752 609.781616,1961.145264 600.636475,1956.531738 
	C664.135864,1891.798950 727.436707,1827.359253 790.774658,1762.956055 
	C890.805481,1661.242676 990.861694,1559.554321 1090.906250,1457.854614 
	C1191.651978,1355.441895 1292.395630,1253.026978 1393.141724,1150.614624 
	C1494.238525,1047.845947 1595.330933,945.072937 1696.436523,842.312805 
	C1774.866577,762.599365 1853.309937,682.898926 1931.763184,603.208313 
	C1937.716309,597.161255 1943.797119,591.239868 1950.073242,585.561523 
	C1954.408325,594.611694 1958.722046,603.260620 1962.517700,612.131165 
	C1969.067505,627.437927 1975.578613,642.772522 1981.600708,658.291504 
	C1994.894043,692.549683 2006.415527,727.443054 2015.382202,763.059204 
	C2022.148071,789.934082 2027.663330,817.151611 2032.872314,844.381775 
	C2036.927246,865.579712 2040.185425,886.966980 2042.803345,908.391541 
	C2044.959351,926.036987 2045.616211,943.864136 2047.071777,961.599670 
	C2047.195679,963.109009 2048.333496,964.535156 2049.000000,966.000000 
z"/>
<!-- The following paths define the white shape (#FFFEFE, #FEFDFD, #FEFCFC) and the additional red shapes -->
<path fill="#FFFEFE" opacity="1.000000" stroke="none" 
	d="
M1452.305298,94.646591 
	C1464.325195,99.888687 1476.601440,104.770050 1488.046997,111.143265 
	C1516.833740,127.172432 1545.823975,142.961166 1573.642700,160.568329 
	C1600.758179,177.730377 1626.751099,196.711227 1652.778320,215.527679 
	C1665.048950,224.398788 1676.442749,234.529053 1687.880127,244.494827 
	C1701.770020,256.597809 1715.451538,268.952667 1728.915771,281.527832 
	C1741.166748,292.969757 1753.343140,304.529419 1764.937134,316.626862 
	C1777.911133,330.164062 1790.813232,343.860046 1802.634766,358.391449 
	C1821.687500,381.811707 1840.101196,405.768158 1858.280151,429.878601 
	C1876.626343,454.210724 1893.052124,479.859100 1908.038208,506.401398 
	C1916.890259,522.079285 1925.659668,537.807983 1934.180176,553.667480 
	C1939.650635,563.849854 1944.600586,574.311890 1949.801147,584.954346 
	C1943.797119,591.239868 1937.716309,597.161255 1931.763184,603.208313 
	C1853.309937,682.898926 1774.866577,762.599365 1696.436523,842.312805 
	C1595.330933,945.072937 1494.238525,1047.845947 1393.141724,1150.614624 
	C1292.395630,1253.026978 1191.651978,1355.441895 1090.906250,1457.854614 
	C990.861694,1559.554321 890.805481,1661.242676 790.774658,1762.956055 
	C727.436707,1827.359253 664.135864,1891.798950 600.636475,1956.531738 
	C585.696716,1949.786865 570.894714,1942.822754 556.200562,1935.638062 
	C549.413452,1932.319580 542.724426,1928.764771 536.185974,1924.980103 
	C516.297974,1913.468628 495.978760,1902.593506 476.801758,1889.988281 
	C449.838501,1872.265259 423.595825,1853.426147 397.366394,1834.615967 
	C387.316071,1827.408691 377.948486,1819.198364 368.626678,1811.037476 
	C352.427032,1796.855103 336.227936,1782.650146 320.549469,1767.900879 
	C306.816956,1754.982056 293.468567,1741.614014 280.556671,1727.874878 
	C266.727173,1713.159424 253.439316,1697.922852 240.210342,1682.657837 
	C211.935974,1650.031616 186.607025,1615.181030 163.436096,1578.794556 
	C152.044373,1560.905518 141.245911,1542.616577 130.769150,1524.173462 
	C121.641563,1508.105469 113.318932,1491.579224 104.707405,1475.220337 
	C103.594421,1473.106201 102.881508,1470.781372 101.856873,1468.165283 
	C149.077866,1419.682861 196.436600,1371.600342 243.770218,1323.493164 
	C326.984772,1238.918579 410.183533,1154.328369 493.389618,1069.745605 
	C634.442810,926.358704 775.496460,782.972351 916.549866,639.585693 
	C1057.252686,496.555481 1197.959717,353.529510 1338.655396,210.492157 
	C1376.516357,172.001038 1414.341797,133.475052 1452.305298,94.646591 
M622.530518,1538.276367 
	C604.579285,1530.730957 586.605103,1523.239624 568.681335,1515.629395 
	C520.404053,1495.132324 472.153870,1474.571045 423.852661,1454.130371 
	C422.612427,1453.605469 420.305969,1453.563354 419.511108,1454.337524 
	C411.435211,1462.202026 403.570374,1470.283081 395.408783,1478.543945 
	C458.381561,1540.490967 520.936951,1602.027344 582.734131,1662.817993 
	C590.246521,1655.621582 597.401672,1648.767456 604.817139,1641.663940 
	C556.396484,1594.021362 507.908966,1546.312988 458.385162,1497.584961 
	C460.566528,1498.247925 461.352142,1498.410889 462.076538,1498.718262 
	C475.713806,1504.499878 489.340607,1510.306519 502.976318,1516.091919 
	C525.967346,1525.847046 548.974121,1535.565186 571.954224,1545.345825 
	C601.060486,1557.733765 630.137878,1570.189453 659.271423,1582.512817 
	C660.549438,1583.053467 662.893982,1583.216919 663.674438,1582.458130 
	C671.751343,1574.604736 679.608643,1566.525635 687.807556,1558.225098 
	C624.786743,1496.230591 562.225708,1434.688354 500.577087,1374.043701 
	C493.070007,1381.145386 485.857910,1387.968018 478.470520,1394.956421 
	C479.463531,1396.037231 480.416260,1397.169800 481.466431,1398.203491 
	C522.084717,1438.182739 562.718933,1478.145630 603.330994,1518.131104 
	C609.974915,1524.672729 616.526062,1531.308350 623.173645,1537.868652 
	C623.173645,1537.868652 623.226868,1537.836426 622.530518,1538.276367 
M867.548767,1028.151489 
	C856.205933,1027.749756 846.282349,1032.028320 837.204712,1038.148560 
	C810.144531,1056.393188 789.666199,1081.643799 766.743469,1105.034546 
	C828.229858,1165.519531 889.717163,1226.005371 951.167847,1286.455200 
	C951.922119,1286.024658 952.432129,1285.863525 952.762390,1285.526367 
	C971.070374,1266.840210 989.633423,1248.393188 1007.552368,1229.340698 
	C1017.699097,1218.552002 1025.559448,1205.894897 1027.949829,1191.011719 
	C1032.223145,1164.403931 1022.008118,1143.034790 1002.056641,1125.966064 
	C982.548279,1109.276489 960.758484,1104.588623 936.556946,1114.817627 
	C933.435364,1116.136963 930.352112,1117.546997 926.017090,1119.459473 
	C935.190247,1097.543091 935.619690,1077.279663 922.043152,1058.165161 
	C908.926514,1039.697998 891.777405,1028.461792 867.548767,1028.151489 
M1639.450439,529.139282 
	C1633.786377,515.509399 1624.388550,504.880646 1612.646362,496.243195 
	C1594.103760,482.603546 1574.111206,479.964813 1552.743042,488.812775 
	C1549.456665,490.173584 1546.204712,491.617004 1542.050293,493.403442 
	C1542.882446,490.873566 1543.342407,489.349548 1543.881958,487.854218 
	C1552.485962,464.007599 1548.364136,442.803741 1531.087036,424.065247 
	C1515.747437,407.428314 1497.057129,399.788452 1474.598755,403.158203 
	C1460.994995,405.199402 1449.625122,412.779266 1439.887695,421.903412 
	C1421.303101,439.317627 1403.499512,457.565613 1385.384521,475.480560 
	C1384.356934,476.496735 1383.444946,477.629761 1382.202759,479.017151 
	C1443.880493,539.687134 1505.350098,600.152466 1566.961060,660.756714 
	C1568.196289,659.690369 1569.108765,659.007751 1569.899048,658.205017 
	C1586.377197,641.466370 1602.958862,624.826904 1619.236450,607.895081 
	C1624.057617,602.880249 1628.383667,597.285400 1632.300537,591.523987 
	C1645.358154,572.316895 1648.427490,551.754639 1639.450439,529.139282 
M1289.385132,672.117065 
	C1286.200073,669.184021 1283.192261,666.025879 1279.800781,663.354980 
	C1259.731445,647.549377 1237.931641,643.774780 1215.123169,656.335510 
	C1205.331299,661.727966 1196.106323,668.750244 1187.997925,676.474609 
	C1170.756958,692.898621 1154.413696,710.265015 1137.715576,727.257996 
	C1137.158325,727.825073 1136.742188,728.530762 1136.056396,729.442932 
	C1198.245483,790.614807 1260.287354,851.641907 1321.416626,911.771301 
	C1328.991699,904.521973 1336.040039,897.776733 1343.415771,890.718201 
	C1315.197876,862.940308 1286.886475,835.070374 1257.737305,806.375671 
	C1264.121582,800.316650 1270.246582,794.923157 1275.885986,789.062256 
	C1286.741821,777.780029 1299.808350,773.888855 1315.000000,776.594971 
	C1330.295654,779.319580 1343.332031,787.022644 1355.842407,795.690002 
	C1371.034912,806.215576 1386.055664,816.989258 1401.228149,827.544312 
	C1402.350098,828.324890 1404.837646,828.975098 1405.438965,828.393005 
	C1412.923462,821.148987 1420.176147,813.665466 1427.703613,806.025146 
	C1424.612061,803.978943 1422.176392,802.273621 1419.652466,800.710876 
	C1395.181641,785.559814 1370.923340,770.047119 1346.128418,755.445801 
	C1331.679199,746.936951 1315.979736,745.336060 1300.012451,751.967957 
	C1298.697510,752.514099 1297.268066,752.784302 1294.932617,753.460388 
	C1310.714966,724.824402 1314.449463,697.679565 1289.385132,672.117065 
M1577.532959,424.967072 
	C1615.024780,461.851929 1652.516479,498.736786 1690.268066,535.877258 
	C1725.689453,499.868561 1760.582153,464.397308 1794.680664,429.733521 
	C1787.728638,422.438995 1781.212891,415.602203 1774.381348,408.434021 
	C1746.587891,436.668335 1718.805908,464.891174 1690.755859,493.386078 
	C1669.576782,472.572388 1648.709351,452.064941 1627.494507,431.216248 
	C1651.097290,407.200500 1674.400269,383.489899 1696.973389,360.521729 
	C1690.062256,353.324188 1683.531250,346.522675 1677.726685,340.477600 
	C1653.830688,363.351990 1629.817993,386.338257 1605.106812,409.993073 
	C1586.825195,390.869354 1568.000610,371.177521 1548.926392,351.224701 
	C1575.844482,323.847229 1603.588501,295.629547 1630.582520,268.174774 
	C1623.548706,260.847321 1617.005005,254.030365 1610.194214,246.935303 
	C1575.344360,282.360901 1540.439575,317.842285 1505.128052,353.737274 
	C1529.328125,377.544342 1553.178711,401.007568 1577.532959,424.967072 
M823.991577,1242.508301 
	C837.677368,1256.156372 851.774536,1269.421143 864.939758,1283.554199 
	C879.787598,1299.493408 881.652344,1317.473755 870.445496,1333.121216 
	C866.148865,1339.120361 860.737549,1344.628296 854.897888,1349.151367 
	C842.715149,1358.587524 829.082825,1359.857300 815.592163,1352.218872 
	C809.022034,1348.498901 802.931396,1343.546997 797.507629,1338.247925 
	C754.001953,1295.741943 710.707947,1253.019287 667.345581,1210.366577 
	C666.079712,1209.121582 664.774353,1207.916504 664.296509,1207.462158 
	C656.770020,1214.730835 649.635620,1221.620850 642.162903,1228.837524 
	C643.833923,1230.393799 645.697876,1232.049072 647.472778,1233.794678 
	C690.600952,1276.210449 733.656067,1318.700928 776.910156,1360.987793 
	C783.193054,1367.130249 789.992188,1372.949463 797.292603,1377.805664 
	C815.728760,1390.069336 835.604736,1393.258423 856.037659,1383.320190 
	C875.905701,1373.656738 890.985840,1358.514404 901.753418,1339.255859 
	C912.266724,1320.451782 912.528931,1301.132812 901.716919,1282.621704 
	C896.159546,1273.107178 889.133728,1264.096436 881.323975,1256.309692 
	C837.426575,1212.541260 793.089905,1169.213379 748.893738,1125.744751 
	C747.871094,1124.738892 746.737549,1123.845825 745.655823,1122.900269 
	C745.980530,1123.415039 746.305237,1123.929688 746.629944,1124.444458 
	C739.477905,1131.279297 732.325867,1138.114136 724.974060,1145.139893 
	C757.681396,1177.302124 790.584656,1209.656982 823.991577,1242.508301 
M407.568665,1528.930908 
	C397.554993,1518.466187 387.541351,1508.001587 378.034149,1498.066162 
	C369.723328,1505.998291 362.540771,1512.853394 355.163055,1519.894897 
	C356.219360,1521.045654 357.167328,1522.174927 358.213623,1523.204224 
	C401.226685,1565.510376 444.288849,1607.766846 487.214478,1650.161621 
	C492.167236,1655.052979 496.856323,1660.367676 500.815033,1666.077271 
	C509.504242,1678.609497 510.946777,1691.965210 503.141144,1705.561646 
	C498.254700,1714.073242 491.565338,1720.987915 483.267181,1726.291870 
	C471.626770,1733.731934 459.394409,1734.890625 447.317413,1728.101196 
	C440.579926,1724.313721 434.110657,1719.580688 428.581116,1714.186646 
	C384.917145,1671.592651 341.509583,1628.735962 298.017242,1585.965942 
	C296.734894,1584.704956 295.387451,1583.510132 294.660522,1582.833618 
	C287.256500,1589.927734 280.089111,1596.795166 272.749634,1603.827393 
	C273.617615,1604.795898 274.439056,1605.819702 275.368347,1606.733887 
	C320.278381,1650.914429 365.123901,1695.161133 410.205811,1739.165649 
	C416.116974,1744.935425 422.893127,1750.012939 429.879272,1754.449585 
	C448.020111,1765.970093 467.324585,1768.137939 486.968201,1758.683350 
	C504.166290,1750.405762 517.539795,1737.456177 528.188965,1721.735107 
	C543.612061,1698.966797 544.535767,1675.723633 529.209106,1652.617920 
	C524.366150,1645.317017 518.654297,1638.411499 512.437622,1632.233032 
	C477.802399,1597.810181 442.889954,1563.666382 407.568665,1528.930908 
M683.905701,1394.213989 
	C687.137207,1393.417847 690.346252,1392.512451 693.603882,1391.843750 
	C712.876282,1387.888062 729.532104,1392.379639 743.090576,1407.108032 
	C757.299011,1422.542725 759.090210,1444.380127 747.319153,1460.262573 
	C733.861145,1478.421265 715.050415,1483.456909 694.884216,1473.583130 
	C686.897400,1469.672485 679.587769,1464.378662 673.249390,1460.498169 
	C665.104736,1468.259155 656.968140,1476.012451 648.672974,1483.916870 
	C663.215088,1496.060547 679.159180,1505.729004 698.076050,1509.610229 
	C711.366516,1512.337036 724.400513,1511.013550 736.576416,1505.027710 
	C754.934509,1496.002930 768.526428,1481.907715 778.314331,1464.026733 
	C782.962402,1455.535400 785.365112,1446.441162 785.785339,1436.823120 
	C787.316833,1401.771729 757.837769,1371.599976 734.419800,1362.941040 
	C718.847107,1357.183105 702.937744,1357.006714 687.296753,1361.640991 
	C672.804688,1365.934814 658.780151,1371.784058 644.450806,1376.657349 
	C635.499023,1379.701538 626.530640,1383.234741 617.275696,1384.736694 
	C598.541931,1387.777100 580.577271,1376.536133 574.305054,1358.654175 
	C572.917175,1354.697388 571.953796,1349.963989 572.748474,1345.977783 
	C576.163696,1328.845825 586.496887,1317.001343 602.870544,1311.075806 
	C607.345459,1309.456177 612.697083,1309.575195 617.577820,1309.906494 
	C627.179260,1310.558228 635.170410,1315.598633 643.171326,1320.463623 
	C644.458923,1321.246338 647.100281,1321.907471 647.790039,1321.244873 
	C655.186218,1314.139160 662.315674,1306.755859 670.661255,1298.288940 
	C660.774048,1292.518311 652.070496,1286.704956 642.746277,1282.166748 
	C628.424683,1275.196411 613.286743,1273.853149 598.115051,1279.368164 
	C580.737244,1285.685425 567.566467,1297.527954 557.467590,1312.707153 
	C546.365662,1329.394165 541.740845,1347.872559 547.013489,1367.455322 
	C556.849121,1403.984741 594.059204,1424.396606 630.510559,1413.262939 
	C648.309570,1407.826416 665.620239,1400.790771 683.905701,1394.213989 
M1102.460083,1022.954163 
	C1119.179810,1034.155029 1127.684448,1052.956177 1123.562012,1069.603882 
	C1116.235962,1099.188232 1085.667847,1111.798828 1059.583862,1095.893188 
	C1053.496094,1092.180786 1047.687744,1088.010254 1043.131226,1084.971313 
	C1034.648804,1092.893799 1026.357910,1100.637573 1017.881348,1108.554565 
	C1030.965942,1119.049805 1044.782715,1127.898682 1060.895996,1132.549805 
	C1076.319946,1137.002075 1091.617798,1136.537964 1106.182983,1129.453125 
	C1122.478760,1121.526367 1134.972534,1109.224854 1144.572632,1093.960449 
	C1157.719727,1073.056519 1158.990723,1051.193481 1147.906860,1029.317261 
	C1136.426025,1006.657227 1119.069702,990.300415 1093.460449,984.573975 
	C1078.224365,981.167175 1063.241577,983.298279 1048.725586,988.376709 
	C1033.489624,993.707031 1018.570862,999.962097 1003.262512,1005.059570 
	C995.783875,1007.549805 987.739563,1009.594910 979.944031,1009.620605 
	C963.457581,1009.675049 952.356506,1000.116516 944.965332,986.124451 
	C938.542786,973.965881 942.109009,962.832825 949.772888,952.580933 
	C964.655945,932.672180 983.152344,928.666748 1005.024841,940.529785 
	C1008.773621,942.562988 1012.362671,944.890747 1014.794739,946.345947 
	C1023.023621,938.503601 1030.708374,931.179810 1039.299438,922.992371 
	C1032.117065,918.356079 1025.453003,913.416077 1018.227600,909.515930 
	C1000.162354,899.764343 981.238892,896.934631 962.131287,906.047485 
	C943.636353,914.868042 929.532410,928.811096 921.085571,947.484619 
	C900.895996,992.117737 928.753723,1027.677368 960.784424,1037.975342 
	C978.268982,1043.596802 995.366089,1040.224365 1012.100098,1034.081299 
	C1026.161011,1028.919556 1040.087280,1023.361206 1054.281616,1018.600159 
	C1070.567139,1013.137756 1086.696167,1012.956177 1102.460083,1022.954163 
M1115.061035,957.436279 
	C1131.093872,972.683105 1148.560303,985.988647 1168.611694,995.502930 
	C1191.958374,1006.580811 1215.833862,1010.505554 1239.411621,996.597534 
	C1261.927490,983.315796 1276.467773,964.603699 1274.968994,936.901489 
	C1274.065552,920.202393 1267.427734,905.275940 1259.000732,891.112366 
	C1255.829346,885.782288 1252.271240,880.682251 1249.292603,876.097900 
	C1241.238525,883.859741 1233.707886,891.116943 1225.931641,898.610962 
	C1226.747192,899.925049 1227.731323,901.250122 1228.447021,902.707031 
	C1232.977783,911.930603 1238.419678,920.849915 1241.734497,930.497131 
	C1248.290161,949.576782 1237.772827,968.439941 1218.306763,973.943054 
	C1205.670898,977.515320 1193.875000,973.943970 1182.589722,968.463013 
	C1166.248169,960.526367 1152.124878,949.382141 1138.875244,937.116882 
	C1117.781738,917.590515 1097.807983,897.077393 1083.730591,871.645752 
	C1077.671509,860.699646 1073.698608,849.166626 1074.881592,836.356445 
	C1077.003662,813.375244 1098.651855,800.270874 1119.618286,809.719299 
	C1127.718750,813.369690 1135.255737,818.270508 1141.714966,821.860046 
	C1149.483765,814.504028 1157.154541,807.240967 1165.074951,799.741577 
	C1162.305542,797.694641 1159.583374,795.529602 1156.711426,793.585754 
	C1142.496460,783.964233 1127.563110,776.202026 1109.973999,774.892334 
	C1076.121826,772.371765 1044.308960,807.912231 1044.647705,839.308716 
	C1044.868164,859.727173 1052.549194,877.576172 1062.348755,894.815857 
	C1075.934692,918.716980 1094.582153,938.393005 1115.061035,957.436279 
M1300.157471,558.824524 
	C1296.914185,562.062500 1300.767334,563.185852 1302.159912,564.560242 
	C1355.656250,617.354675 1409.270874,670.029053 1462.748657,722.842224 
	C1470.555908,730.552307 1477.760254,738.872986 1484.076050,745.657166 
	C1492.780396,737.346069 1500.170654,730.289673 1507.702393,723.098083 
	C1445.382690,661.793335 1382.843994,600.272949 1320.464111,538.908875 
	C1313.510132,545.726196 1307.091064,552.019165 1300.157471,558.824524 
z"/>
<path fill="#E42229" opacity="1.000000" stroke="none" 
	d="
M623.120056,1537.900513 
	C616.526062,1531.308350 609.974915,1524.672729 603.330994,1518.131104 
	C562.718933,1478.145630 522.084717,1438.182739 481.466431,1398.203491 
	C480.416260,1397.169800 479.463531,1396.037231 478.470520,1394.956421 
	C485.857910,1387.968018 493.070007,1381.145386 500.577087,1374.043701 
	C562.225708,1434.688354 624.786743,1496.230591 687.807556,1558.225098 
	C679.608643,1566.525635 671.751343,1574.604736 663.674438,1582.458130 
	C662.893982,1583.216919 660.549438,1583.053467 659.271423,1582.512817 
	C630.137878,1570.189453 601.060486,1557.733765 571.954224,1545.345825 
	C548.974121,1535.565186 525.967346,1525.847046 502.976318,1516.091919 
	C489.340607,1510.306519 475.713806,1504.499878 462.076538,1498.718262 
	C461.352142,1498.410889 460.566528,1498.247925 458.385162,1497.584961 
	C507.908966,1546.312988 556.396484,1594.021362 604.817139,1641.663940 
	C597.401672,1648.767456 590.246521,1655.621582 582.734131,1662.817993 
	C520.936951,1602.027344 458.381561,1540.490967 395.408783,1478.543945 
	C403.570374,1470.283081 411.435211,1462.202026 419.511108,1454.337524 
	C420.305969,1453.563354 422.612427,1453.605469 423.852661,1454.130371 
	C472.153870,1474.571045 520.404053,1495.132324 568.681335,1515.629395 
	C586.605103,1523.239624 604.579285,1530.730957 622.727417,1538.221680 
	C623.106934,1538.303833 623.289490,1538.440552 623.472046,1538.577271 
	C623.354736,1538.351685 623.237366,1538.126099 623.120056,1537.900513 
z"/>
<path fill="#E42229" opacity="1.000000" stroke="none" 
	d="
M868.021851,1028.149780 
	C891.777405,1028.461792 908.926514,1039.697998 922.043152,1058.165161 
	C935.619690,1077.279663 935.190247,1097.543091 926.017090,1119.459473 
	C930.352112,1117.546997 933.435364,1116.136963 936.556946,1114.817627 
	C960.758484,1104.588623 982.548279,1109.276489 1002.056641,1125.966064 
	C1022.008118,1143.034790 1032.223145,1164.403931 1027.949829,1191.011719 
	C1025.559448,1205.894897 1017.699097,1218.552002 1007.552368,1229.340698 
	C989.633423,1248.393188 971.070374,1266.840210 952.762390,1285.526367 
	C952.432129,1285.863525 951.922119,1286.024658 951.167847,1286.455200 
	C889.717163,1226.005371 828.229858,1165.519531 766.743469,1105.034546 
	C789.666199,1081.643799 810.144531,1056.393188 837.204712,1038.148560 
	C846.282349,1032.028320 856.205933,1027.749756 868.021851,1028.149780 
M940.531677,1232.967773 
	C944.522034,1236.895508 948.512390,1240.823242 953.451294,1245.684814 
	C966.030273,1231.531128 978.913086,1218.463745 990.035828,1204.039062 
	C998.004883,1193.704468 1000.880798,1180.933228 995.566895,1168.081909 
	C989.262756,1152.835693 978.039062,1142.093872 962.248962,1137.171509 
	C945.964355,1132.094727 931.872559,1138.430908 919.801208,1148.716553 
	C909.181274,1157.765381 899.694946,1168.145874 889.732300,1177.963013 
	C888.950989,1178.732788 888.360779,1179.696655 887.681763,1180.570312 
	C888.256104,1180.141602 888.830444,1179.712891 889.404846,1179.284180 
	C906.278931,1197.013672 923.153015,1214.743164 940.531677,1232.967773 
M834.528076,1076.020752 
	C825.811768,1084.843994 817.095459,1093.667358 810.111877,1100.736572 
	C829.350586,1120.948730 848.095276,1140.641846 867.358276,1160.879517 
	C877.697021,1149.586548 887.971985,1139.140625 897.305237,1127.911865 
	C904.235107,1119.574707 908.001648,1109.592407 907.254517,1098.362061 
	C906.273865,1083.620361 897.404419,1073.701294 886.726501,1064.991333 
	C876.171570,1056.381592 863.435425,1055.206665 851.909180,1062.355469 
	C845.881836,1066.093750 840.640686,1071.099854 834.528076,1076.020752 
z"/>
<path fill="#E42229" opacity="1.000000" stroke="none" 
	d="
M1639.596191,529.494629 
	C1648.427490,551.754639 1645.358154,572.316895 1632.300537,591.523987 
	C1628.383667,597.285400 1624.057617,602.880249 1619.236450,607.895081 
	C1602.958862,624.826904 1586.377197,641.466370 1569.899048,658.205017 
	C1569.108765,659.007751 1568.196289,659.690369 1566.961060,660.756714 
	C1505.350098,600.152466 1443.880493,539.687134 1382.202759,479.017151 
	C1383.444946,477.629761 1384.356934,476.496735 1385.384521,475.480560 
	C1403.499512,457.565613 1421.303101,439.317627 1439.887695,421.903412 
	C1449.625122,412.779266 1460.994995,405.199402 1474.598755,403.158203 
	C1497.057129,399.788452 1515.747437,407.428314 1531.087036,424.065247 
	C1548.364136,442.803741 1552.485962,464.007599 1543.881958,487.854218 
	C1543.342407,489.349548 1542.882446,490.873566 1542.050293,493.403442 
	C1546.204712,491.617004 1549.456665,490.173584 1552.743042,488.812775 
	C1574.111206,479.964813 1594.103760,482.603546 1612.646362,496.243195 
	C1624.388550,504.880646 1633.786377,515.509399 1639.596191,529.494629 
M1556.180298,511.436859 
	C1551.793213,513.423523 1547.140381,514.976562 1543.066162,517.473633 
	C1527.358398,527.100647 1516.462769,541.933777 1504.864502,552.662292 
	C1526.093750,575.079712 1546.998901,597.154907 1568.764771,620.138977 
	C1581.489502,605.906677 1593.948975,592.927612 1605.231689,578.995605 
	C1612.087524,570.529968 1614.696167,559.955139 1613.036743,548.818604 
	C1610.219360,529.909973 1583.861938,503.001709 1556.180298,511.436859 
M1495.830078,521.328796 
	C1501.710449,514.767395 1508.016602,508.534546 1513.385498,501.578430 
	C1525.799072,485.495087 1526.281616,467.708862 1515.086426,452.128387 
	C1512.679443,448.778534 1509.708984,445.775513 1506.702637,442.924347 
	C1491.870972,428.858704 1476.320190,427.900970 1460.815918,441.266663 
	C1448.870483,451.564392 1437.962280,463.066315 1426.615234,474.055695 
	C1425.707642,474.934723 1424.973877,475.993195 1424.159302,476.968262 
	C1424.863647,476.431976 1425.567993,475.895691 1426.272339,475.359406 
	C1445.016846,495.046387 1463.761353,514.733337 1482.686523,534.610046 
	C1487.159668,530.090027 1491.246704,525.960266 1495.830078,521.328796 
z"/>
<path fill="#E42229" opacity="1.000000" stroke="none" 
	d="
M1289.633911,672.367310 
	C1314.449463,697.679565 1310.714966,724.824402 1294.932617,753.460388 
	C1297.268066,752.784302 1298.697510,752.514099 1300.012451,751.967957 
	C1315.979736,745.336060 1331.679199,746.936951 1346.128418,755.445801 
	C1370.923340,770.047119 1395.181641,785.559814 1419.652466,800.710876 
	C1422.176392,802.273621 1424.612061,803.978943 1427.703613,806.025146 
	C1420.176147,813.665466 1412.923462,821.148987 1405.438965,828.393005 
	C1404.837646,828.975098 1402.350098,828.324890 1401.228149,827.544312 
	C1386.055664,816.989258 1371.034912,806.215576 1355.842407,795.690002 
	C1343.332031,787.022644 1330.295654,779.319580 1315.000000,776.594971 
	C1299.808350,773.888855 1286.741821,777.780029 1275.885986,789.062256 
	C1270.246582,794.923157 1264.121582,800.316650 1257.737305,806.375671 
	C1286.886475,835.070374 1315.197876,862.940308 1343.415771,890.718201 
	C1336.040039,897.776733 1328.991699,904.521973 1321.416626,911.771301 
	C1260.287354,851.641907 1198.245483,790.614807 1136.056396,729.442932 
	C1136.742188,728.530762 1137.158325,727.825073 1137.715576,727.257996 
	C1154.413696,710.265015 1170.756958,692.898621 1187.997925,676.474609 
	C1196.106323,668.750244 1205.331299,661.727966 1215.123169,656.335510 
	C1237.931641,643.774780 1259.731445,647.549377 1279.800781,663.354980 
	C1283.192261,666.025879 1286.200073,669.184021 1289.633911,672.367310 
M1178.744263,725.436951 
	C1179.392456,727.157715 1179.572998,729.347717 1180.758789,730.528870 
	C1198.925781,748.624512 1217.220825,766.591797 1235.500977,784.573608 
	C1236.405273,785.463074 1237.447388,786.212463 1238.506348,787.094604 
	C1243.083862,782.526001 1247.437866,778.186401 1251.785522,773.840637 
	C1260.980225,764.649780 1270.074707,755.411560 1276.028442,743.585815 
	C1283.325317,729.092041 1283.029053,715.106873 1273.713257,701.609680 
	C1257.797607,678.550171 1235.726196,674.392822 1213.834106,691.802429 
	C1201.395508,701.694275 1190.719849,713.803101 1178.744263,725.436951 
z"/>
<path fill="#E42229" opacity="1.000000" stroke="none" 
	d="
M1577.281128,424.718933 
	C1553.178711,401.007568 1529.328125,377.544342 1505.128052,353.737274 
	C1540.439575,317.842285 1575.344360,282.360901 1610.194214,246.935303 
	C1617.005005,254.030365 1623.548706,260.847321 1630.582520,268.174774 
	C1603.588501,295.629547 1575.844482,323.847229 1548.926392,351.224701 
	C1568.000610,371.177521 1586.825195,390.869354 1605.106812,409.993073 
	C1629.817993,386.338257 1653.830688,363.351990 1677.726685,340.477600 
	C1683.531250,346.522675 1690.062256,353.324188 1696.973389,360.521729 
	C1674.400269,383.489899 1651.097290,407.200500 1627.494507,431.216248 
	C1648.709351,452.064941 1669.576782,472.572388 1690.755859,493.386078 
	C1718.805908,464.891174 1746.587891,436.668335 1774.381348,408.434021 
	C1781.212891,415.602203 1787.728638,422.438995 1794.680664,429.733521 
	C1760.582153,464.397308 1725.689453,499.868561 1690.268066,535.877258 
	C1652.516479,498.736786 1615.024780,461.851929 1577.281128,424.718933 
z"/>
<path fill="#E42229" opacity="1.000000" stroke="none" 
	d="
M823.739746,1242.260010 
	C790.584656,1209.656982 757.681396,1177.302124 724.974060,1145.139893 
	C732.325867,1138.114136 739.477905,1131.279297 746.629944,1124.444458 
	C746.305237,1123.929688 745.980530,1123.415039 745.655823,1122.900269 
	C746.737549,1123.845825 747.871094,1124.738892 748.893738,1125.744751 
	C793.089905,1169.213379 837.426575,1212.541260 881.323975,1256.309692 
	C889.133728,1264.096436 896.159546,1273.107178 901.716919,1282.621704 
	C912.528931,1301.132812 912.266724,1320.451782 901.753418,1339.255859 
	C890.985840,1358.514404 875.905701,1373.656738 856.037659,1383.320190 
	C835.604736,1393.258423 815.728760,1390.069336 797.292603,1377.805664 
	C789.992188,1372.949463 783.193054,1367.130249 776.910156,1360.987793 
	C733.656067,1318.700928 690.600952,1276.210449 647.472778,1233.794678 
	C645.697876,1232.049072 643.833923,1230.393799 642.162903,1228.837524 
	C649.635620,1221.620850 656.770020,1214.730835 664.296509,1207.462158 
	C664.774353,1207.916504 666.079712,1209.121582 667.345581,1210.366577 
	C710.707947,1253.019287 754.001953,1295.741943 797.507629,1338.247925 
	C802.931396,1343.546997 809.022034,1348.498901 815.592163,1352.218872 
	C829.082825,1359.857300 842.715149,1358.587524 854.897888,1349.151367 
	C860.737549,1344.628296 866.148865,1339.120361 870.445496,1333.121216 
	C881.652344,1317.473755 879.787598,1299.493408 864.939758,1283.554199 
	C851.774536,1269.421143 837.677368,1256.156372 823.739746,1242.260010 
z"/>
<path fill="#E42229" opacity="1.000000" stroke="none" 
	d="
M407.820465,1529.178955 
	C442.889954,1563.666382 477.802399,1597.810181 512.437622,1632.233032 
	C518.654297,1638.411499 524.366150,1645.317017 529.209106,1652.617920 
	C544.535767,1675.723633 543.612061,1698.966797 528.188965,1721.735107 
	C517.539795,1737.456177 504.166290,1750.405762 486.968201,1758.683350 
	C467.324585,1768.137939 448.020111,1765.970093 429.879272,1754.449585 
	C422.893127,1750.012939 416.116974,1744.935425 410.205811,1739.165649 
	C365.123901,1695.161133 320.278381,1650.914429 275.368347,1606.733887 
	C274.439056,1605.819702 273.617615,1604.795898 272.749634,1603.827393 
	C280.089111,1596.795166 287.256500,1589.927734 294.660522,1582.833618 
	C295.387451,1583.510132 296.734894,1584.704956 298.017242,1585.965942 
	C341.509583,1628.735962 384.917145,1671.592651 428.581116,1714.186646 
	C434.110657,1719.580688 440.579926,1724.313721 447.317413,1728.101196 
	C459.394409,1734.890625 471.626770,1733.731934 483.267181,1726.291870 
	C491.565338,1720.987915 498.254700,1714.073242 503.141144,1705.561646 
	C510.946777,1691.965210 509.504242,1678.609497 500.815033,1666.077271 
	C496.856323,1660.367676 492.167236,1655.052979 487.214478,1650.161621 
	C444.288849,1607.766846 401.226685,1565.510376 358.213623,1523.204224 
	C357.167328,1522.174927 356.219360,1521.045654 355.163055,1519.894897 
	C362.540771,1512.853394 369.723328,1505.998291 378.034149,1498.066162 
	C387.541351,1508.001587 397.554993,1518.466187 407.820465,1529.178955 
z"/>
<path fill="#E42229" opacity="1.000000" stroke="none" 
	d="
M683.528809,1394.346558 
	C665.620239,1400.790771 648.309570,1407.826416 630.510559,1413.262939 
	C594.059204,1424.396606 556.849121,1403.984741 547.013489,1367.455322 
	C541.740845,1347.872559 546.365662,1329.394165 557.467590,1312.707153 
	C567.566467,1297.527954 580.737244,1285.685425 598.115051,1279.368164 
	C613.286743,1273.853149 628.424683,1275.196411 642.746277,1282.166748 
	C652.070496,1286.704956 660.774048,1292.518311 670.661255,1298.288940 
	C662.315674,1306.755859 655.186218,1314.139160 647.790039,1321.244873 
	C647.100281,1321.907471 644.458923,1321.246338 643.171326,1320.463623 
	C635.170410,1315.598633 627.179260,1310.558228 617.577820,1309.906494 
	C612.697083,1309.575195 607.345459,1309.456177 602.870544,1311.075806 
	C586.496887,1317.001343 576.163696,1328.845825 572.748474,1345.977783 
	C571.953796,1349.963989 572.917175,1354.697388 574.305054,1358.654175 
	C580.577271,1376.536133 598.541931,1387.777100 617.275696,1384.736694 
	C626.530640,1383.234741 635.499023,1379.701538 644.450806,1376.657349 
	C658.780151,1371.784058 672.804688,1365.934814 687.296753,1361.640991 
	C702.937744,1357.006714 718.847107,1357.183105 734.419800,1362.941040 
	C757.837769,1371.599976 787.316833,1401.771729 785.785339,1436.823120 
	C785.365112,1446.441162 782.962402,1455.535400 778.314331,1464.026733 
	C768.526428,1481.907715 754.934509,1496.002930 736.576416,1505.027710 
	C724.400513,1511.013550 711.366516,1512.337036 698.076050,1509.610229 
	C679.159180,1505.729004 663.215088,1496.060547 648.672974,1483.916870 
	C656.968140,1476.012451 665.104736,1468.259155 673.249390,1460.498169 
	C679.587769,1464.378662 686.897400,1469.672485 694.884216,1473.583130 
	C715.050415,1483.456909 733.861145,1478.421265 747.319153,1460.262573 
	C759.090210,1444.380127 757.299011,1422.542725 743.090576,1407.108032 
	C729.532104,1392.379639 712.876282,1387.888062 693.603882,1391.843750 
	C690.346252,1392.512451 687.137207,1393.417847 683.528809,1394.346558 
z"/>
<path fill="#E42229" opacity="1.000000" stroke="none" 
	d="
M1102.170654,1022.734680 
	C1086.696167,1012.956177 1070.567139,1013.137756 1054.281616,1018.600159 
	C1040.087280,1023.361206 1026.161011,1028.919556 1012.100098,1034.081299 
	C995.366089,1040.224365 978.268982,1043.596802 960.784424,1037.975342 
	C928.753723,1027.677368 900.895996,992.117737 921.085571,947.484619 
	C929.532410,928.811096 943.636353,914.868042 962.131287,906.047485 
	C981.238892,896.934631 1000.162354,899.764343 1018.227600,909.515930 
	C1025.453003,913.416077 1032.117065,918.356079 1039.299438,922.992371 
	C1030.708374,931.179810 1023.023621,938.503601 1014.794739,946.345947 
	C1012.362671,944.890747 1008.773621,942.562988 1005.024841,940.529785 
	C983.152344,928.666748 964.655945,932.672180 949.772888,952.580933 
	C942.109009,962.832825 938.542786,973.965881 944.965332,986.124451 
	C952.356506,1000.116516 963.457581,1009.675049 979.944031,1009.620605 
	C987.739563,1009.594910 995.783875,1007.549805 1003.262512,1005.059570 
	C1018.570862,999.962097 1033.489624,993.707031 1048.725586,988.376709 
	C1063.241577,983.298279 1078.224365,981.167175 1093.460449,984.573975 
	C1119.069702,990.300415 1136.426025,1006.657227 1147.906860,1029.317261 
	C1158.990723,1051.193481 1157.719727,1073.056519 1144.572632,1093.960449 
	C1134.972534,1109.224854 1122.478760,1121.526367 1106.182983,1129.453125 
	C1091.617798,1136.537964 1076.319946,1137.002075 1060.895996,1132.549805 
	C1044.782715,1127.898682 1030.965942,1119.049805 1017.881348,1108.554565 
	C1026.357910,1100.637573 1034.648804,1092.893799 1043.131226,1084.971313 
	C1047.687744,1088.010254 1053.496094,1092.180786 1059.583862,1095.893188 
	C1085.667847,1111.798828 1116.235962,1099.188232 1123.562012,1069.603882 
	C1127.684448,1052.956177 1119.179810,1034.155029 1102.170654,1022.734680 
z"/>
<path fill="#E42229" opacity="1.000000" stroke="none" 
	d="
M1114.802856,957.193909 
	C1094.582153,938.393005 1075.934692,918.716980 1062.348755,894.815857 
	C1052.549194,877.576172 1044.868164,859.727173 1044.647705,839.308716 
	C1044.308960,807.912231 1076.121826,772.371765 1109.973999,774.892334 
	C1127.563110,776.202026 1142.496460,783.964233 1156.711426,793.585754 
	C1159.583374,795.529602 1162.305542,797.694641 1165.074951,799.741577 
	C1157.154541,807.240967 1149.483765,814.504028 1141.714966,821.860046 
	C1135.255737,818.270508 1127.718750,813.369690 1119.618286,809.719299 
	C1098.651855,800.270874 1077.003662,813.375244 1074.881592,836.356445 
	C1073.698608,849.166626 1077.671509,860.699646 1083.730591,871.645752 
	C1097.807983,897.077393 1117.781738,917.590515 1138.875244,937.116882 
	C1152.124878,949.382141 1166.248169,960.526367 1182.589722,968.463013 
	C1193.875000,973.943970 1205.670898,977.515320 1218.306763,973.943054 
	C1237.772827,968.439941 1248.290161,949.576782 1241.734497,930.497131 
	C1238.419678,920.849915 1232.977783,911.930603 1228.447021,902.707031 
	C1227.731323,901.250122 1226.747192,899.925049 1225.931641,898.610962 
	C1233.707886,891.116943 1241.238525,883.859741 1249.292603,876.097900 
	C1252.271240,880.682251 1255.829346,885.782288 1259.000732,891.112366 
	C1267.427734,905.275940 1274.065552,920.202393 1274.968994,936.901489 
	C1276.467773,964.603699 1261.927490,983.315796 1239.411621,996.597534 
	C1215.833862,1010.505554 1191.958374,1006.580811 1168.611694,995.502930 
	C1148.560303,985.988647 1131.093872,972.683105 1114.802856,957.193909 
z"/>
<path fill="#E42128" opacity="1.000000" stroke="none" 
	d="
M1300.414795,558.568359 
	C1307.091064,552.019165 1313.510132,545.726196 1320.464111,538.908875 
	C1382.843994,600.272949 1445.382690,661.793335 1507.702393,723.098083 
	C1500.170654,730.289673 1492.780396,737.346069 1484.076050,745.657166 
	C1477.760254,738.872986 1470.555908,730.552307 1462.748657,722.842224 
	C1409.270874,670.029053 1355.656250,617.354675 1302.159912,564.560242 
	C1300.767334,563.185852 1296.914185,562.062500 1300.414795,558.568359 
z"/>
<path fill="#FFFEFE" opacity="1.000000" stroke="none" 
	d="
M623.146851,1537.884521 
	C623.237366,1538.126099 623.354736,1538.351685 623.472046,1538.577271 
	C623.289490,1538.440552 623.106934,1538.303833 623.075623,1538.001709 
	C623.226868,1537.836426 623.173645,1537.868652 623.146851,1537.884521 
z"/>
<path fill="#FEFDFD" opacity="1.000000" stroke="none" 
	d="
M940.279419,1232.720215 
	C923.153015,1214.743164 906.278931,1197.013672 889.404846,1179.284180 
	C888.830444,1179.712891 888.256104,1180.141602 887.681763,1180.570312 
	C888.360779,1179.696655 888.950989,1178.732788 889.732300,1177.963013 
	C899.694946,1168.145874 909.181274,1157.765381 919.801208,1148.716553 
	C931.872559,1138.430908 945.964355,1132.094727 962.248962,1137.171509 
	C978.039062,1142.093872 989.262756,1152.835693 995.566895,1168.081909 
	C1000.880798,1180.933228 998.004883,1193.704468 990.035828,1204.039062 
	C978.913086,1218.463745 966.030273,1231.531128 953.451294,1245.684814 
	C948.512390,1240.823242 944.522034,1236.895508 940.279419,1232.720215 
z"/>
<path fill="#FEFCFC" opacity="1.000000" stroke="none" 
	d="
M834.786255,1075.777100 
	C840.640686,1071.099854 845.881836,1066.093750 851.909180,1062.355469 
	C863.435425,1055.206665 876.171570,1056.381592 886.726501,1064.991333 
	C897.404419,1073.701294 906.273865,1083.620361 907.254517,1098.362061 
	C908.001648,1109.592407 904.235107,1119.574707 897.305237,1127.911865 
	C887.971985,1139.140625 877.697021,1149.586548 867.358276,1160.879517 
	C848.095276,1140.641846 829.350586,1120.948730 810.111877,1100.736572 
	C817.095459,1093.667358 825.811768,1084.843994 834.786255,1075.777100 
z"/>
<path fill="#FEFDFD" opacity="1.000000" stroke="none" 
	d="
M1556.575684,511.320648 
	C1583.861938,503.001709 1610.219360,529.909973 1613.036743,548.818604 
	C1614.696167,559.955139 1612.087524,570.529968 1605.231689,578.995605 
	C1593.948975,592.927612 1581.489502,605.906677 1568.764771,620.138977 
	C1546.998901,597.154907 1526.093750,575.079712 1504.864502,552.662292 
	C1516.462769,541.933777 1527.358398,527.100647 1543.066162,517.473633 
	C1547.140381,514.976562 1551.793213,513.423523 1556.575684,511.320648 
z"/>
<path fill="#FEFCFC" opacity="1.000000" stroke="none" 
	d="
M1495.581787,521.579712 
	C1491.246704,525.960266 1487.159668,530.090027 1482.686523,534.610046 
	C1463.761353,514.733337 1445.016846,495.046387 1426.272339,475.359406 
	C1425.567993,475.895691 1424.863647,476.431976 1424.159302,476.968262 
	C1424.973877,475.993195 1425.707642,474.934723 1426.615234,474.055695 
	C1437.962280,463.066315 1448.870483,451.564392 1460.815918,441.266663 
	C1476.320190,427.900970 1491.870972,428.858704 1506.702637,442.924347 
	C1509.708984,445.775513 1512.679443,448.778534 1515.086426,452.128387 
	C1526.281616,467.708862 1525.799072,485.495087 1513.385498,501.578430 
	C1508.016602,508.534546 1501.710449,514.767395 1495.581787,521.579712 
z"/>
<path fill="#FEFCFC" opacity="1.000000" stroke="none" 
	d="
M1178.997192,725.175232 
	C1190.719849,713.803101 1201.395508,701.694275 1213.834106,691.802429 
	C1235.726196,674.392822 1257.797607,678.550171 1273.713257,701.609680 
	C1283.029053,715.106873 1283.325317,729.092041 1276.028442,743.585815 
	C1270.074707,755.411560 1260.980225,764.649780 1251.785522,773.840637 
	C1247.437866,778.186401 1243.083862,782.526001 1238.506348,787.094604 
	C1237.447388,786.212463 1236.405273,785.463074 1235.500977,784.573608 
	C1217.220825,766.591797 1198.925781,748.624512 1180.758789,730.528870 
	C1179.572998,729.347717 1179.392456,727.157715 1178.997192,725.175232 
z"/>
</svg>
